<svg width="27" height="22" viewBox="0 0 27 22" fill="white" xmlns="http://www.w3.org/2000/svg">
<g filter="url(#filter0_i_71_540)">
<path d="M1.30948 9V7.48295L4.49272 4.69602C4.73136 4.48011 4.93448 4.28267 5.1021 4.10369C5.26971 3.92187 5.39755 3.74006 5.48562 3.55824C5.57369 3.37358 5.61772 3.1733 5.61772 2.95739C5.61772 2.71591 5.56516 2.50994 5.46005 2.33949C5.35494 2.16619 5.21005 2.03267 5.02539 1.93892C4.84073 1.84517 4.62908 1.7983 4.39045 1.7983C4.14897 1.7983 3.93732 1.84801 3.7555 1.94744C3.57369 2.04403 3.43164 2.18466 3.32937 2.36932C3.22994 2.55398 3.18022 2.77841 3.18022 3.04261H1.18164C1.18164 2.44886 1.31516 1.93608 1.58221 1.50426C1.84925 1.07244 2.22425 0.740057 2.70721 0.507102C3.193 0.271307 3.75692 0.153409 4.39897 0.153409C5.0609 0.153409 5.63619 0.264204 6.12482 0.485795C6.61346 0.707386 6.9913 1.01705 7.25835 1.41477C7.52823 1.80966 7.66318 2.26847 7.66318 2.79119C7.66318 3.12358 7.59641 3.45312 7.46289 3.77983C7.32937 4.10653 7.08931 4.46733 6.74272 4.86222C6.39897 5.2571 5.91033 5.73011 5.27681 6.28125L4.23278 7.24432V7.29972H7.76971V9H1.30948ZM12.5712 9.21307C11.8098 9.21307 11.1536 9.03267 10.6025 8.67188C10.0513 8.30824 9.6266 7.78693 9.3283 7.10795C9.03001 6.42614 8.88228 5.60653 8.88512 4.64915C8.88796 3.69176 9.03711 2.87926 9.33256 2.21165C9.63086 1.54119 10.0542 1.03125 10.6025 0.681818C11.1536 0.329545 11.8098 0.153409 12.5712 0.153409C13.3326 0.153409 13.9888 0.329545 14.54 0.681818C15.0939 1.03125 15.5201 1.54119 15.8184 2.21165C16.1167 2.8821 16.2644 3.6946 16.2615 4.64915C16.2615 5.60937 16.1124 6.4304 15.8141 7.11222C15.5158 7.79403 15.0911 8.31534 14.54 8.67614C13.9917 9.03409 13.3354 9.21307 12.5712 9.21307ZM12.5712 7.48722C13.0257 7.48722 13.3936 7.25568 13.6749 6.79261C13.9561 6.3267 14.0953 5.61222 14.0925 4.64915C14.0925 4.01847 14.0286 3.49858 13.9007 3.08949C13.7729 2.67756 13.5953 2.37074 13.3681 2.16903C13.1408 1.96733 12.8752 1.86648 12.5712 1.86648C12.1195 1.86648 11.7544 2.09517 11.476 2.55256C11.1976 3.0071 11.057 3.70597 11.0542 4.64915C11.0513 5.28835 11.1124 5.81818 11.2374 6.23864C11.3652 6.65909 11.5442 6.97301 11.7743 7.1804C12.0044 7.38494 12.2701 7.48722 12.5712 7.48722ZM21.079 9.21307C20.3176 9.21307 19.6614 9.03267 19.1103 8.67188C18.5591 8.30824 18.1344 7.78693 17.8361 7.10795C17.5378 6.42614 17.3901 5.60653 17.3929 4.64915C17.3958 3.69176 17.5449 2.87926 17.8404 2.21165C18.1387 1.54119 18.562 1.03125 19.1103 0.681818C19.6614 0.329545 20.3176 0.153409 21.079 0.153409C21.8404 0.153409 22.4966 0.329545 23.0478 0.681818C23.6017 1.03125 24.0279 1.54119 24.3262 2.21165C24.6245 2.8821 24.7722 3.6946 24.7694 4.64915C24.7694 5.60937 24.6202 6.4304 24.3219 7.11222C24.0236 7.79403 23.5989 8.31534 23.0478 8.67614C22.4995 9.03409 21.8432 9.21307 21.079 9.21307ZM21.079 7.48722C21.5336 7.48722 21.9015 7.25568 22.1827 6.79261C22.464 6.3267 22.6032 5.61222 22.6003 4.64915C22.6003 4.01847 22.5364 3.49858 22.4086 3.08949C22.2807 2.67756 22.1032 2.37074 21.8759 2.16903C21.6486 1.96733 21.383 1.86648 21.079 1.86648C20.6273 1.86648 20.2623 2.09517 19.9838 2.55256C19.7054 3.0071 19.5648 3.70597 19.562 4.64915C19.5591 5.28835 19.6202 5.81818 19.7452 6.23864C19.873 6.65909 20.052 6.97301 20.2821 7.1804C20.5123 7.38494 20.7779 7.48722 21.079 7.48722ZM8.73757 16.6364C8.73757 17.5966 8.55291 18.4105 8.18359 19.0781C7.81428 19.7457 7.31428 20.2528 6.68359 20.5994C6.05575 20.946 5.35121 21.1193 4.56996 21.1193C3.78587 21.1193 3.0799 20.9446 2.45206 20.5952C1.82422 20.2457 1.32564 19.7386 0.956321 19.0739C0.589844 18.4062 0.406605 17.5937 0.406605 16.6364C0.406605 15.6761 0.589844 14.8622 0.956321 14.1946C1.32564 13.527 1.82422 13.0199 2.45206 12.6733C3.0799 12.3267 3.78587 12.1534 4.56996 12.1534C5.35121 12.1534 6.05575 12.3267 6.68359 12.6733C7.31428 13.0199 7.81428 13.527 8.18359 14.1946C8.55291 14.8622 8.73757 15.6761 8.73757 16.6364ZM6.58132 16.6364C6.58132 16.0682 6.50036 15.5881 6.33842 15.196C6.17933 14.804 5.94922 14.5071 5.64808 14.3054C5.34979 14.1037 4.99041 14.0028 4.56996 14.0028C4.15234 14.0028 3.79297 14.1037 3.49183 14.3054C3.1907 14.5071 2.95916 14.804 2.79723 15.196C2.63814 15.5881 2.55859 16.0682 2.55859 16.6364C2.55859 17.2045 2.63814 17.6847 2.79723 18.0767C2.95916 18.4687 3.1907 18.7656 3.49183 18.9673C3.79297 19.169 4.15234 19.2699 4.56996 19.2699C4.99041 19.2699 5.34979 19.169 5.64808 18.9673C5.94922 18.7656 6.17933 18.4687 6.33842 18.0767C6.50036 17.6847 6.58132 17.2045 6.58132 16.6364ZM9.96911 21V12.2727H12.0785V15.9631H12.1935L15.0785 12.2727H17.5629L14.4691 16.1676L17.6183 21H15.0955L12.9222 17.5696L12.0785 18.6349V21H9.96911ZM18.3949 21V12.2727H20.5043V15.9631H20.6193L23.5043 12.2727H25.9886L22.8949 16.1676L26.044 21H23.5213L21.348 17.5696L20.5043 18.6349V21H18.3949Z" fill="white"/>
</g>
<defs>
<filter id="filter0_i_71_540" x="0.406494" y="0.15332" width="25.6375" height="24.9661" filterUnits="userSpaceOnUse" color-interpolation-filters="sRGB">
<feFlood flood-opacity="0" result="BackgroundImageFix"/>
<feBlend mode="normal" in="SourceGraphic" in2="BackgroundImageFix" result="shape"/>
<feColorMatrix in="SourceAlpha" type="matrix" values="0 0 0 0 0 0 0 0 0 0 0 0 0 0 0 0 0 0 127 0" result="hardAlpha"/>
<feOffset dy="4"/>
<feGaussianBlur stdDeviation="2"/>
<feComposite in2="hardAlpha" operator="arithmetic" k2="-1" k3="1"/>
<feColorMatrix type="matrix" values="0 0 0 0 0 0 0 0 0 0 0 0 0 0 0 0 0 0 0.25 0"/>
<feBlend mode="normal" in2="shape" result="effect1_innerShadow_71_540"/>
</filter>
</defs>
</svg>
